<svg id="Layer_1" data-name="Layer 1" xmlns="http://www.w3.org/2000/svg" viewBox="0 0 477.36 228.29"><defs><style>.cls-1{fill:#f5e946;}.cls-2{fill:#1d1d1b;}</style></defs><title>Faiza All Logo</title><path class="cls-1" d="M187.77,10a49.51,49.51,0,0,1-18.53,14.46,55.85,55.85,0,0,1-23.83,5.31h-67q14.79,2.91,32.41,16.61t20,35.42A47.24,47.24,0,0,0,153,76.41Q163.3,71,168.42,58.61l-10.77,45.65q-2.75-7.86-5.3-15.89-6.39,2.19-11.78,3.47t-8.67,2q0,37.07-19.53,57.51T63.25,171.81q-27.57,0-38.24-12.6t-10.68-31q0-23,15.79-34t39.16-11h37.61q-4.76-25.74-19.35-38.16T52.48,32.5q-18.07,0-28.66,8.59T5.2,66.65q0-23.37,19.08-38.34a68.35,68.35,0,0,1,43.36-15H139q21.18,0,32.59-.64T187.77,10ZM22,123.61q0,15.88,13,29t29.76,13.14q21.9,0,32.31-18t10.41-53.22H53.94a33.56,33.56,0,0,0-22.54,8Q22,110.65,22,123.61Z"/><path class="cls-2" d="M63.25,173.89c-9.36,0-17.44-1.09-24-3.25-6.72-2.21-12-5.6-15.84-10.08-7.42-8.75-11.18-19.64-11.18-32.39,0-16,5.61-28,16.68-35.76C39.76,84.83,53.34,81,69.28,81h35.07C101.14,65.63,95,54,86.19,46.51,76.88,38.6,65.54,34.59,52.48,34.59c-11.5,0-20.7,2.73-27.35,8.12s-12.86,13.85-18,24.83a2.09,2.09,0,0,1-4-.89C3.11,50.47,9.8,37,23,26.66A70.75,70.75,0,0,1,67.64,11.25H139c14,0,25-.22,32.47-.65C178.82,10.19,184,9.34,187,8.09a2.08,2.08,0,0,1,2.47,3.19,51.76,51.76,0,0,1-19.3,15.07,58.2,58.2,0,0,1-24.71,5.5h-54a104.31,104.31,0,0,1,20.73,12.88c11.64,9.05,18.55,20.8,20.55,35A45.18,45.18,0,0,0,152,74.56c6.4-3.33,11.27-9,14.47-16.74a2.09,2.09,0,0,1,4,1.27l-10.78,45.64a2.08,2.08,0,0,1-4,.21c-1.61-4.59-3.17-9.26-4.67-13.92-3.56,1.17-6.9,2.13-9.95,2.85-2.85.68-5.18,1.22-7.08,1.65a103.4,103.4,0,0,1-5,31.91,68.05,68.05,0,0,1-15.11,25.37C100.5,166.8,83.47,173.89,63.25,173.89Zm6-88.73c-15.07,0-27.85,3.59-38,10.67s-14.9,17.6-14.9,32.34c0,11.73,3.43,21.72,10.19,29.69s19,11.86,36.65,11.86c19,0,35.05-6.66,47.61-19.8s19-32,19-56.07a2.09,2.09,0,0,1,1.63-2c2.12-.47,5-1.12,8.64-2,3.49-.83,7.39-2,11.58-3.41a2.09,2.09,0,0,1,2.67,1.34c.95,3,1.93,6,2.94,9l6.11-25.89A32.69,32.69,0,0,1,154,78.26a49.48,49.48,0,0,1-23.14,5.62A2.09,2.09,0,0,1,128.73,82c-1.51-13.84-8-25.28-19.19-34C98.1,39.14,87.49,33.69,78,31.81a2.08,2.08,0,0,1,.41-4.13h67a54.12,54.12,0,0,0,23-5.11,49.42,49.42,0,0,0,13.15-8.79,95.15,95.15,0,0,1-9.78,1c-7.58.43-18.58.65-32.71.65H67.64A66.65,66.65,0,0,0,25.56,30C16.19,37.3,10.49,46,8.3,56.41A64.3,64.3,0,0,1,22.51,39.47c7.4-6,17.49-9,30-9,14.08,0,26.33,4.34,36.41,12.91s16.81,21.81,20,39.37a2.09,2.09,0,0,1-2,2.46Zm-4.56,82.71c-11.73,0-22.24-4.63-31.25-13.77s-13.56-19.38-13.56-30.49c0-9.24,3.41-16.84,10.13-22.58a35.71,35.71,0,0,1,23.9-8.54h53.5a2.09,2.09,0,0,1,2.08,2.09c0,23.75-3.59,42-10.68,54.26C91.53,161.47,80.05,167.87,64.72,167.87ZM53.94,96.66a31.67,31.67,0,0,0-21.19,7.54c-5.83,5-8.67,11.33-8.67,19.41,0,10,4.16,19.25,12.36,27.56S54.15,163.7,64.72,163.7c13.93,0,23.91-5.54,30.51-16.95,6.51-11.25,9.91-28.1,10.11-50.09Z"/><path class="cls-1" d="M242.18,53.5v67.55c.12,1.59.91,2.38,2.37,2.38a8.86,8.86,0,0,0,3.92-1.19q2.28-1.18,7.4-4.11a30.62,30.62,0,0,1-7.94,9.68q-5.58,4.74-10.68,4.74c-1.95,0-4.48-1.33-7.58-4A13.53,13.53,0,0,1,225,117.77v-9.86Q213.88,119,206.21,125.8t-13.33,6.75q-6.21,0-11-7.3T177,105.72q0-24.84,13.69-38.53t35.6-13.69ZM194.52,91.84q0,9,2.92,13.15a9.28,9.28,0,0,0,8,4.2,20.36,20.36,0,0,0,9.4-2.65A51.61,51.61,0,0,0,225,99.33V58.61q-13.69,0-22.09,10.14A35.16,35.16,0,0,0,194.52,91.84Z"/><path class="cls-2" d="M237.25,134.64c-2.49,0-5.42-1.48-8.94-4.52a15.57,15.57,0,0,1-5.38-12.35v-4.85c-5.93,5.84-11.07,10.68-15.34,14.44-5.56,4.9-10.37,7.28-14.71,7.28-4.86,0-9.17-2.77-12.78-8.24-3.44-5.19-5.19-12.15-5.19-20.68,0-17,4.81-30.51,14.31-40s22-14.31,37.07-14.31h15.89a2.09,2.09,0,0,1,2.08,2.09V121a1.69,1.69,0,0,0,.07.36l.22,0a6.68,6.68,0,0,0,3-1c1.49-.77,4-2.14,7.32-4.07a2.09,2.09,0,0,1,2.92,2.72,32.78,32.78,0,0,1-8.47,10.35C245.2,132.88,241.15,134.64,237.25,134.64ZM225,105.82a2,2,0,0,1,.8.16,2.08,2.08,0,0,1,1.29,1.93v9.86A11.4,11.4,0,0,0,231,127c3.54,3,5.41,3.51,6.22,3.51,2.88,0,6-1.43,9.32-4.25q.94-.81,1.8-1.62a9.61,9.61,0,0,1-3.82.91,4.27,4.27,0,0,1-4.45-4.3.86.86,0,0,1,0-.16V55.59h-13.8c-14,0-25.45,4.4-34.13,13.08s-13.08,21.14-13.08,37.05c0,7.7,1.51,13.88,4.49,18.38,2.84,4.29,5.88,6.37,9.31,6.37,3.23,0,7.25-2.1,12-6.24,5-4.43,11.33-10.42,18.71-17.8A2.07,2.07,0,0,1,225,105.82Zm-19.53,5.45a11.28,11.28,0,0,1-9.75-5.09c-2.21-3.19-3.29-7.88-3.29-14.34a37.4,37.4,0,0,1,8.88-24.43c6-7.22,14-10.88,23.69-10.88a2.08,2.08,0,0,1,2.09,2.08V99.33a2.05,2.05,0,0,1-.7,1.55,53.14,53.14,0,0,1-10.55,7.5A22.35,22.35,0,0,1,205.48,111.27Zm17.45-50.51a24.75,24.75,0,0,0-18.4,9.32,33.26,33.26,0,0,0-7.92,21.76c0,5.5.86,9.53,2.55,12a7.12,7.12,0,0,0,6.32,3.31,18.35,18.35,0,0,0,8.43-2.41,48,48,0,0,0,9-6.31Z"/><path class="cls-1" d="M278.87,52.59q5.65,0,7.94,4.38a22.27,22.27,0,0,1,2.28,10.41v51.3q.74,5.11,3.84,5.11,2.19,0,5.11-2.37l3.83-3.11q-4.38,7.45-8.85,10.85a16.34,16.34,0,0,1-10.13,3.39,9,9,0,0,1-7.67-4,15.62,15.62,0,0,1-2.92-9.47V65.36c0-2.31-.86-3.46-2.56-3.46q-3.47,0-10.77,6.21.91-3.47,7.49-9.5T278.87,52.59Zm2.37-39.8a10.13,10.13,0,0,1,7.67,3.28q3.1,3.29,3.11,9a11.45,11.45,0,0,1-5.48,10q-5.48,3.66-9.86,3.65c-2.56,0-4.47-1.37-5.75-4.11A22.38,22.38,0,0,1,269,25q0-6.94,3.29-9.59T281.24,12.79Z"/><path class="cls-2" d="M282.89,134.64a11.1,11.1,0,0,1-9.36-4.86,17.77,17.77,0,0,1-3.32-10.7V65.36A2.73,2.73,0,0,0,270,64a1,1,0,0,0-.25,0c-.81,0-3.35.56-9.42,5.72A2.09,2.09,0,0,1,257,67.58c.72-2.74,3.37-6.17,8.1-10.51s9.41-6.57,13.82-6.57c5.72,0,8.48,3,9.79,5.5a24.48,24.48,0,0,1,2.52,11.38v51.15c.32,2.11.91,3.18,1.75,3.18.66,0,1.86-.34,3.8-1.91l3.84-3.12a2.09,2.09,0,0,1,3.1,2.69c-3,5.18-6.2,9-9.39,11.45A18.46,18.46,0,0,1,282.89,134.64ZM269.74,59.81c1.09,0,4.64.4,4.64,5.55v53.72a13.51,13.51,0,0,0,2.52,8.24,7,7,0,0,0,6,3.15,14.18,14.18,0,0,0,8.87-3,21.71,21.71,0,0,0,1.91-1.67,6.27,6.27,0,0,1-.74,0c-1.84,0-5.05-.9-5.9-6.91a2.64,2.64,0,0,1,0-.29V67.38A20.31,20.31,0,0,0,285,57.93c-1.16-2.22-3.09-3.26-6.09-3.26-3.31,0-7,1.81-10.9,5.38A7.21,7.21,0,0,1,269.74,59.81Zm6.94-19c-2.36,0-5.59-.92-7.64-5.31A24.68,24.68,0,0,1,266.93,25c0-5.27,1.36-9,4.06-11.21s6-3.11,10.25-3.11a12.2,12.2,0,0,1,9.19,3.94c2.44,2.58,3.67,6.07,3.67,10.38a13.49,13.49,0,0,1-6.4,11.78C283.72,39.45,280,40.8,276.68,40.8Zm4.56-25.93c-3.26,0-5.83.74-7.63,2.19s-2.51,4-2.51,8a20.52,20.52,0,0,0,1.72,8.7c1.2,2.58,2.69,2.91,3.86,2.91,2.49,0,5.42-1.11,8.7-3.3A9.41,9.41,0,0,0,289.93,25c0-3.25-.83-5.71-2.53-7.52A8.08,8.08,0,0,0,281.24,14.87Z"/><path class="cls-1" d="M335.47,53.5h42.72l-35.6,35.24h12.23a25.52,25.52,0,0,0,5.48-.64,28,28,0,0,0,6.75-2.65Q360.48,94,355.91,97.68t-11.86,3.65H330.17a111.33,111.33,0,0,0-8.76,8.39q-4.38,4.66-4.38,9.51h38q9.31,0,15.52-8.38,4.74-9.13,5.29-10.06c.12,1.34.19,2.49.19,3.47a56.69,56.69,0,0,1-3.1,19Q369.81,132,360.52,132H309.18a37.57,37.57,0,0,1,3.69-17A43.86,43.86,0,0,1,324,101.33H311.37a13.44,13.44,0,0,0-5.48.92,18.87,18.87,0,0,0-3.47,2,107.65,107.65,0,0,1,9.71-10.32q5.55-5.2,12.08-5.2h11.62l22.7-22.46H327.77q-5.28,0-8,1.59T317,73.75a7.29,7.29,0,0,0,3.46,6.53c3.05,1.37,5.05,2.3,6,2.8q-9.67,0-13.51-3.24a9.72,9.72,0,0,1-3.83-7.67q0-10.35,8.12-14.51A39.3,39.3,0,0,1,335.47,53.5Z"/><path class="cls-2" d="M360.52,134.09H309.18a2.08,2.08,0,0,1-2.09-2.08A39.78,39.78,0,0,1,311,114.07a43.15,43.15,0,0,1,7.67-10.65h-7.31a11.44,11.44,0,0,0-4.62.73,16.44,16.44,0,0,0-3.08,1.78,2.08,2.08,0,0,1-2.86-3,109.49,109.49,0,0,1,9.9-10.52c4.07-3.83,8.61-5.77,13.5-5.77H335l18.47-18.28H327.77c-3.13,0-5.48.43-7,1.3-.41.24-1.69,1-1.69,4.08a5.22,5.22,0,0,0,2.39,4.7c3,1.35,5,2.26,6,2.77a2.08,2.08,0,0,1-1,3.94c-7,0-11.88-1.22-14.86-3.72a11.82,11.82,0,0,1-4.57-9.27c0-7.72,3.12-13.22,9.26-16.37a41.56,41.56,0,0,1,19.12-4.39h42.72a2.1,2.1,0,0,1,1.93,1.3,2.08,2.08,0,0,1-.46,2.27l-32,31.67h7.16a23.82,23.82,0,0,0,5-.59,25.42,25.42,0,0,0,6.23-2.46,2.09,2.09,0,0,1,2.63,3.12c-4.46,5.82-8.33,10.06-11.49,12.59-3.41,2.73-7.84,4.11-13.17,4.11H330.94a108.31,108.31,0,0,0-8,7.73,13.69,13.69,0,0,0-3.56,6H355c5.51,0,10-2.42,13.75-7.41,3.1-6,4.87-9.33,5.27-10a2.08,2.08,0,0,1,3.87.87c.13,1.44.19,2.63.19,3.66a59.08,59.08,0,0,1-3.21,19.68C372.52,130.58,367.56,134.09,360.52,134.09Zm-49.21-4.17h49.21c5.33,0,8.64-2.34,10.42-7.37a53.06,53.06,0,0,0,2.77-13.32l-1.34,2.58-.17.28c-4.54,6.12-10.32,9.22-17.2,9.22H317a2.08,2.08,0,0,1-2.09-2.08,14,14,0,0,1,2.15-7.3,33.1,33.1,0,0,0-5.78,18Zm13.42-26.49a47.61,47.61,0,0,0-4.91,4.94l.07-.08C321.49,106.59,323.11,105,324.73,103.43Zm-13.36-4.18H324a2.08,2.08,0,0,1,1.68,3.32q1.59-1.47,3.18-2.82a2.11,2.11,0,0,1,1.35-.5h13.88c4.36,0,7.91-1.08,10.56-3.2a48,48,0,0,0,5.91-5.87,27.2,27.2,0,0,1-5.7.64H342.59a2.09,2.09,0,0,1-1.47-3.57l32-31.66H335.47a37.34,37.34,0,0,0-17.22,3.93c-4.7,2.4-7,6.54-7,12.65a7.72,7.72,0,0,0,3.09,6.08,8.75,8.75,0,0,0,2.41,1.37,9.67,9.67,0,0,1-1.82-5.87c0-4.54,2.05-6.69,3.77-7.69,2.17-1.25,5.13-1.87,9.06-1.87h30.76a2.11,2.11,0,0,1,1.93,1.3,2.08,2.08,0,0,1-.47,2.27L337.3,90.22a2.07,2.07,0,0,1-1.47.6H324.21c-3.84,0-7.33,1.52-10.65,4.64-1.36,1.28-2.67,2.56-3.91,3.85C310.19,99.27,310.76,99.25,311.37,99.25Z"/><path class="cls-1" d="M449,53.5v67.55c.12,1.59.92,2.38,2.38,2.38a8.86,8.86,0,0,0,3.92-1.19q2.28-1.18,7.4-4.11a30.62,30.62,0,0,1-7.94,9.68q-5.58,4.74-10.69,4.74c-1.94,0-4.47-1.33-7.57-4a13.49,13.49,0,0,1-4.66-10.77v-9.86Q420.73,119,413.06,125.8t-13.33,6.75q-6.21,0-11.05-7.3t-4.83-19.53q0-24.84,13.69-38.53t35.6-13.69ZM401.37,91.84q0,9,2.92,13.15a9.28,9.28,0,0,0,8,4.2,20.36,20.36,0,0,0,9.4-2.65,51.61,51.61,0,0,0,10.13-7.21V58.61q-13.69,0-22.09,10.14A35.16,35.16,0,0,0,401.37,91.84Z"/><path class="cls-2" d="M444.09,134.64c-2.48,0-5.41-1.48-8.93-4.52a15.57,15.57,0,0,1-5.38-12.35v-4.85c-5.93,5.84-11.07,10.68-15.34,14.44-5.56,4.9-10.37,7.28-14.71,7.28-4.87,0-9.17-2.77-12.79-8.24-3.44-5.19-5.18-12.15-5.18-20.68,0-17,4.81-30.51,14.3-40s22-14.31,37.08-14.31H449a2.09,2.09,0,0,1,2.09,2.09V121a1.69,1.69,0,0,0,.07.36l.22,0a6.68,6.68,0,0,0,3-1c1.49-.77,3.95-2.14,7.32-4.07A2.09,2.09,0,0,1,464.6,119a32.78,32.78,0,0,1-8.47,10.35C452.05,132.88,448,134.64,444.09,134.64Zm-12.23-28.82a2,2,0,0,1,.8.16,2.08,2.08,0,0,1,1.29,1.93v9.86a11.4,11.4,0,0,0,3.93,9.19c3.54,3,5.41,3.51,6.21,3.51,2.89,0,6-1.43,9.33-4.25q.94-.81,1.8-1.62a9.61,9.61,0,0,1-3.82.91,4.28,4.28,0,0,1-4.46-4.3V55.59h-13.8c-14,0-25.45,4.4-34.13,13.08s-13.08,21.14-13.08,37.05c0,7.7,1.51,13.88,4.49,18.38,2.84,4.29,5.88,6.37,9.31,6.37,3.23,0,7.25-2.1,11.95-6.24,5-4.43,11.33-10.42,18.71-17.8A2.07,2.07,0,0,1,431.86,105.82Zm-19.53,5.45a11.28,11.28,0,0,1-9.75-5.09c-2.21-3.19-3.29-7.88-3.29-14.34a37.35,37.35,0,0,1,8.88-24.43c6-7.22,13.95-10.88,23.69-10.88A2.09,2.09,0,0,1,434,58.61V99.33a2.09,2.09,0,0,1-.7,1.55,53.14,53.14,0,0,1-10.55,7.5A22.35,22.35,0,0,1,412.33,111.27Zm17.45-50.51a24.75,24.75,0,0,0-18.4,9.32,33.26,33.26,0,0,0-7.92,21.76c0,5.5.86,9.53,2.55,12a7.12,7.12,0,0,0,6.32,3.31,18.35,18.35,0,0,0,8.43-2.41,48,48,0,0,0,9-6.31Z"/><path class="cls-1" d="M187.77,10a49.51,49.51,0,0,1-18.53,14.46,55.85,55.85,0,0,1-23.83,5.31h-67q14.79,2.91,32.41,16.61t20,35.42A47.24,47.24,0,0,0,153,76.41Q163.3,71,168.42,58.61l-10.77,45.65q-2.75-7.86-5.3-15.89-6.39,2.19-11.78,3.47t-8.67,2q0,37.07-19.53,57.51T63.25,171.81q-27.57,0-38.24-12.6t-10.68-31q0-23,15.79-34t39.16-11h37.61q-4.76-25.74-19.35-38.16T52.48,32.5q-18.07,0-28.66,8.59T5.2,66.65q0-23.37,19.08-38.34a68.35,68.35,0,0,1,43.36-15H139q21.18,0,32.59-.64T187.77,10ZM22,123.61q0,15.88,13,29t29.76,13.14q21.9,0,32.31-18t10.41-53.22H53.94a33.56,33.56,0,0,0-22.54,8Q22,110.65,22,123.61Z"/><path class="cls-1" d="M242.18,53.5v67.55c.12,1.59.91,2.38,2.37,2.38a8.86,8.86,0,0,0,3.92-1.19q2.28-1.18,7.4-4.11a30.62,30.62,0,0,1-7.94,9.68q-5.58,4.74-10.68,4.74c-1.95,0-4.48-1.33-7.58-4A13.53,13.53,0,0,1,225,117.77v-9.86Q213.88,119,206.21,125.8t-13.33,6.75q-6.21,0-11-7.3T177,105.72q0-24.84,13.69-38.53t35.6-13.69ZM194.52,91.84q0,9,2.92,13.15a9.28,9.28,0,0,0,8,4.2,20.36,20.36,0,0,0,9.4-2.65A51.61,51.61,0,0,0,225,99.33V58.61q-13.69,0-22.09,10.14A35.16,35.16,0,0,0,194.52,91.84Z"/><path class="cls-1" d="M278.87,52.59q5.65,0,7.94,4.38a22.27,22.27,0,0,1,2.28,10.41v51.3q.74,5.11,3.84,5.11,2.19,0,5.11-2.37l3.83-3.11q-4.38,7.45-8.85,10.85a16.34,16.34,0,0,1-10.13,3.39,9,9,0,0,1-7.67-4,15.62,15.62,0,0,1-2.92-9.47V65.36c0-2.31-.86-3.46-2.56-3.46q-3.47,0-10.77,6.21.91-3.47,7.49-9.5T278.87,52.59Zm2.37-39.8a10.13,10.13,0,0,1,7.67,3.28q3.1,3.29,3.11,9a11.45,11.45,0,0,1-5.48,10q-5.48,3.66-9.86,3.65c-2.56,0-4.47-1.37-5.75-4.11A22.38,22.38,0,0,1,269,25q0-6.94,3.29-9.59T281.24,12.79Z"/><path class="cls-1" d="M335.47,53.5h42.72l-35.6,35.24h12.23a25.52,25.52,0,0,0,5.48-.64,28,28,0,0,0,6.75-2.65Q360.48,94,355.91,97.68t-11.86,3.65H330.17a111.33,111.33,0,0,0-8.76,8.39q-4.38,4.66-4.38,9.51h38q9.31,0,15.52-8.38,4.74-9.13,5.29-10.06c.12,1.34.19,2.49.19,3.47a56.69,56.69,0,0,1-3.1,19Q369.81,132,360.52,132H309.18a37.57,37.57,0,0,1,3.69-17A43.86,43.86,0,0,1,324,101.33H311.37a13.44,13.44,0,0,0-5.48.92,18.87,18.87,0,0,0-3.47,2,107.65,107.65,0,0,1,9.71-10.32q5.55-5.2,12.08-5.2h11.62l22.7-22.46H327.77q-5.28,0-8,1.59T317,73.75a7.29,7.29,0,0,0,3.46,6.53c3.05,1.37,5.05,2.3,6,2.8q-9.67,0-13.51-3.24a9.72,9.72,0,0,1-3.83-7.67q0-10.35,8.12-14.51A39.3,39.3,0,0,1,335.47,53.5Z"/><path class="cls-1" d="M449,53.5v67.55c.12,1.59.92,2.38,2.38,2.38a8.86,8.86,0,0,0,3.92-1.19q2.28-1.18,7.4-4.11a30.62,30.62,0,0,1-7.94,9.68q-5.58,4.74-10.69,4.74c-1.94,0-4.47-1.33-7.57-4a13.49,13.49,0,0,1-4.66-10.77v-9.86Q420.73,119,413.06,125.8t-13.33,6.75q-6.21,0-11.05-7.3t-4.83-19.53q0-24.84,13.69-38.53t35.6-13.69ZM401.37,91.84q0,9,2.92,13.15a9.28,9.28,0,0,0,8,4.2,20.36,20.36,0,0,0,9.4-2.65,51.61,51.61,0,0,0,10.13-7.21V58.61q-13.69,0-22.09,10.14A35.16,35.16,0,0,0,401.37,91.84Z"/><path class="cls-2" d="M440,3.85a17.19,17.19,0,0,1,17.26,17.26A17.21,17.21,0,0,1,440,38.37a17.21,17.21,0,0,1-14.95-8.6,16.94,16.94,0,0,1-2.31-8.66,17.21,17.21,0,0,1,8.6-14.95A16.92,16.92,0,0,1,440,3.85Zm0,3.38a13.62,13.62,0,0,0-7,1.86A13.82,13.82,0,0,0,428,14.15a13.87,13.87,0,0,0,0,13.93,13.85,13.85,0,0,0,5.08,5.06A13.69,13.69,0,0,0,440.07,35a13.53,13.53,0,0,0,7-1.86,13.91,13.91,0,0,0,6.86-12,13.79,13.79,0,0,0-1.85-7,13.73,13.73,0,0,0-12-6.89ZM436,30.35h-3.74V12h8.68a8,8,0,0,1,3.4.64,4.53,4.53,0,0,1,2.07,1.83,5.23,5.23,0,0,1,.7,2.73,4.71,4.71,0,0,1-1.31,3.35,5.82,5.82,0,0,1-3.62,1.72,4.48,4.48,0,0,1,1.92,1.34,24.19,24.19,0,0,1,1.95,3l2.17,3.7h-4.62l-1.51-3a20.66,20.66,0,0,0-1.81-2.94,4.21,4.21,0,0,0-1.48-1.3,4.37,4.37,0,0,0-1.83-.34h-1Zm0-15.41v5h3a7.18,7.18,0,0,0,3.09-.53,2.15,2.15,0,0,0,1.06-2.11,2,2,0,0,0-.93-1.71,5.14,5.14,0,0,0-2.86-.63Z"/><path class="cls-2" d="M263.15,226.82s-1.44-.2,0-1.22,104.72-42.71,210.73-16.79c0,0,1.49.79-1.51.93S372.7,195.9,263.15,226.82Z"/><path class="cls-2" d="M169.19,185.34q0,3.39-4.42,3.39H145.46V151.58h19.19q4.31,0,4.3,3.42v9.57a3.37,3.37,0,0,1-1.55,3c-.14.09-1.4.7-3.77,1.82,2.45,1.15,3.75,1.79,3.89,1.9a3.47,3.47,0,0,1,1.67,3.06v11Zm-7.44-20.08h0v-9h-9.06v10.9h5.57l3.49-1.9Zm.18,18.8h0V173.47l-3.55-1.8h-5.69v12.39Z"/><polygon class="cls-2" points="194.93 188.73 174.88 188.73 174.88 151.58 194.75 151.58 194.75 156.5 182.11 156.5 182.11 167.35 192.99 167.35 192.99 172.16 182.11 172.16 182.11 183.82 194.93 183.82 194.93 188.73 194.93 188.73"/><path class="cls-2" d="M224.38,188.73h-7.17l-1.45-7h-9l-1.46,7h-7.13v-.09l9.36-37.1h7.6l9.3,37.19Zm-9.64-11.82h0l-3.52-16.76-3.56,16.76Z"/><path class="cls-2" d="M252.63,185.34c0,2.27-1.49,3.39-4.46,3.39H232.82c-2.93,0-4.39-1.12-4.39-3.39V151.58h7.23V184h9.73V151.58h7.24v33.76Z"/><polygon class="cls-2" points="279.45 156.5 271.47 156.5 271.47 188.73 264.27 188.73 264.27 156.5 256.3 156.5 256.3 151.58 279.45 151.58 279.45 156.5 279.45 156.5"/><path class="cls-2" d="M307.44,151.8l-6.39,15.52a79.11,79.11,0,0,0-3.19,7.76v13.65H290.6V175.08a26,26,0,0,0-1.42-3.91c-1.09-2.36-1.68-3.64-1.76-3.85l-6.37-15.52s0-.09,0-.22h7.45l5.78,16.15L300,151.58h7.41v.22Z"/><path class="cls-2" d="M348,185.34c0,2.27-1.47,3.39-4.42,3.39H328.48c-2.86,0-4.29-1.12-4.29-3.39V155q0-3.42,4.29-3.42h15.08q4.43,0,4.42,3.42v8.69h-7.2v-7.33h-9.36V184h9.36v-7.81H348v9.19Z"/><path class="cls-2" d="M378.42,188.73h-7.54l-8-17.25v-3.35H370V156.36H360.9v32.37h-7.23V151.58h19.19c2.9,0,4.36,1.14,4.36,3.42v13.51a2.89,2.89,0,0,1-2.08,3,19.42,19.42,0,0,1-4.69.36l8,16.82Z"/><polygon class="cls-2" points="402.89 188.73 382.84 188.73 382.84 151.58 402.71 151.58 402.71 156.5 390.07 156.5 390.07 167.35 400.94 167.35 400.94 172.16 390.07 172.16 390.07 183.82 402.89 183.82 402.89 188.73 402.89 188.73"/><path class="cls-2" d="M432.34,188.73h-7.17l-1.45-7h-9.06l-1.45,7h-7.13v-.09l9.36-37.1H423l9.3,37.19Zm-9.64-11.82h0l-3.52-16.76-3.56,16.76Z"/><path class="cls-2" d="M465.62,188.73h-6.95V170.41a25.94,25.94,0,0,1,.43-4l-6.24,19h-3.68l-6.27-19a26.67,26.67,0,0,1,.43,4v18.32h-6.95V151.58h6.83l7.6,20.54a8.2,8.2,0,0,1,.19,1.68,11.06,11.06,0,0,1,.18-1.68l7.6-20.54h6.83v37.15Z"/></svg>