<?xml version="1.0" standalone="no"?>
<!DOCTYPE svg PUBLIC "-//W3C//DTD SVG 20010904//EN"
 "http://www.w3.org/TR/2001/REC-SVG-20010904/DTD/svg10.dtd">
<svg version="1.0" xmlns="http://www.w3.org/2000/svg"
 width="500.000000pt" height="500.000000pt" viewBox="0 0 500.000000 500.000000"
 preserveAspectRatio="xMidYMid meet">

<g transform="translate(0.000000,500.000000) scale(0.100000,-0.100000)"
fill="#000000" stroke="none">
<path d="M2380 3973 c-198 -20 -389 -72 -540 -148 -543 -273 -862 -847 -810
-1455 13 -154 26 -219 76 -361 74 -212 179 -376 353 -550 226 -225 480 -362
775 -416 128 -24 397 -23 531 1 528 96 980 491 1143 996 39 123 40 126 57 254
64 473 -88 921 -429 1262 -235 235 -547 381 -885 414 -99 10 -196 11 -271 3z
m425 -43 c158 -41 222 -63 320 -111 90 -43 130 -68 256 -153 50 -34 238 -222
277 -277 91 -129 188 -310 226 -423 138 -406 84 -861 -145 -1230 -79 -127
-105 -161 -197 -254 -300 -305 -750 -472 -1161 -433 -542 51 -996 376 -1214
866 -98 221 -133 405 -124 650 9 271 88 505 251 748 78 116 94 135 206 246
171 168 383 287 625 352 166 44 204 48 415 44 146 -3 202 -8 265 -25z"/>
<path d="M2275 3846 c-115 -23 -219 -53 -293 -85 -39 -17 -73 -31 -76 -31 -4
0 -36 -18 -72 -40 -36 -22 -68 -40 -71 -40 -9 0 -128 -94 -201 -158 -287 -254
-460 -710 -421 -1111 10 -107 47 -279 77 -361 80 -221 252 -453 447 -604 66
-51 216 -146 231 -146 2 0 33 -13 69 -30 63 -29 186 -66 295 -90 85 -18 303
-24 403 -11 322 43 598 180 818 408 130 134 196 234 278 420 47 109 76 214 96
356 19 131 19 227 0 352 -60 394 -227 682 -531 911 -153 116 -300 186 -494
237 -103 26 -134 30 -300 33 -128 2 -207 -1 -255 -10z m460 -177 c121 -22 143
-29 217 -63 31 -14 60 -26 63 -26 15 0 154 -87 210 -131 112 -88 229 -222 308
-354 94 -156 157 -395 157 -595 0 -101 -29 -296 -56 -378 -130 -389 -494 -708
-899 -788 -129 -26 -358 -24 -486 4 -309 65 -586 263 -764 542 -197 311 -229
750 -78 1089 39 89 46 103 82 161 82 132 244 298 369 378 87 55 239 122 342
149 167 45 342 49 535 12z"/>
<path d="M2405 3620 c-4 -6 -5 -48 -4 -95 l3 -85 49 0 c69 0 98 40 60 82 -13
14 -14 21 -5 30 17 17 15 44 -4 62 -17 18 -89 22 -99 6z m88 -29 c5 -5 7 -17
3 -26 -9 -24 -70 -16 -74 9 -6 32 44 44 71 17z m-5 -70 c25 -16 9 -46 -26 -49
-28 -3 -32 0 -32 21 0 13 3 27 7 30 9 10 35 8 51 -2z"/>
<path d="M2586 3593 c-3 -16 -8 -57 -12 -92 -5 -51 -4 -63 7 -59 8 3 15 19 17
36 4 44 27 40 46 -8 9 -22 20 -40 26 -40 12 0 12 0 -1 37 -9 27 -7 34 15 56
14 15 26 33 26 41 0 27 -42 56 -81 56 -33 0 -38 -3 -43 -27z m78 -6 c28 -21
13 -57 -25 -57 -25 0 -29 4 -29 28 0 44 20 54 54 29z"/>
<path d="M2173 3573 c-9 -3 -13 -32 -13 -94 0 -89 7 -108 25 -67 13 30 64 42
86 22 10 -9 20 -11 23 -6 6 10 -90 153 -102 151 -4 0 -13 -3 -19 -6z m62 -103
c-3 -5 -15 -10 -26 -10 -16 0 -19 7 -19 41 l0 41 26 -31 c14 -17 23 -35 19
-41z"/>
<path d="M2814 3572 c-31 -5 -64 -44 -70 -84 -5 -27 -1 -40 21 -66 48 -58 117
-36 146 46 20 59 -32 115 -97 104z m58 -39 c42 -37 10 -113 -47 -113 -55 0
-73 54 -34 104 23 30 54 33 81 9z"/>
<path d="M2030 3518 c0 -24 64 -148 76 -148 11 0 11 7 0 38 -31 87 -76 152
-76 110z"/>
<path d="M2990 3504 c0 -4 8 -13 18 -20 16 -12 16 -15 -2 -46 -38 -65 -57
-110 -51 -116 8 -9 30 20 61 81 23 45 27 48 55 42 44 -10 35 9 -20 38 -50 28
-61 31 -61 21z"/>
<path d="M1947 3483 c-4 -3 7 -30 23 -60 17 -29 27 -53 23 -53 -5 0 -34 13
-66 30 -50 25 -94 31 -83 11 34 -64 90 -151 97 -151 20 0 15 21 -17 68 -19 29
-31 52 -27 52 4 0 31 -10 59 -21 49 -21 84 -21 84 0 0 8 -61 103 -79 124 -4 4
-10 4 -14 0z"/>
<path d="M3140 3399 c-6 -10 -31 -42 -56 -70 -34 -38 -43 -54 -34 -63 8 -8 18
-2 39 22 l27 34 32 -27 32 -27 -25 -30 c-20 -23 -23 -34 -15 -42 9 -8 16 -5
28 14 10 13 34 44 55 68 20 24 37 47 37 53 0 18 -24 9 -45 -17 l-21 -26 -32
27 -32 27 25 33 c21 27 23 34 10 38 -9 4 -19 -2 -25 -14z"/>
<path d="M2584 3391 c4 -6 19 -11 34 -11 50 0 184 -39 260 -75 203 -96 372
-274 449 -475 45 -115 58 -189 57 -330 0 -157 -21 -256 -81 -380 -50 -104 -85
-152 -172 -242 -41 -43 -71 -81 -68 -85 4 -3 44 32 90 78 236 243 316 587 211
906 -93 279 -293 483 -571 580 -99 34 -221 55 -209 34z"/>
<path d="M1717 3312 c-37 -38 -36 -82 2 -124 24 -27 36 -33 69 -33 99 0 120
104 33 162 -45 30 -72 29 -104 -5z m98 -27 c28 -28 32 -66 9 -89 -22 -23 -51
-20 -79 9 -29 28 -32 61 -8 87 22 25 49 23 78 -7z"/>
<path d="M2085 3301 c-76 -25 -204 -125 -286 -226 -32 -38 -58 -73 -59 -77 0
-4 -16 -33 -35 -65 -65 -109 -115 -300 -115 -437 0 -185 76 -402 195 -556 172
-223 464 -360 742 -348 157 7 147 24 -15 24 -108 0 -156 4 -227 22 -161 40
-322 136 -439 263 -201 217 -280 530 -206 819 40 158 105 274 219 394 62 64
177 156 197 156 5 0 20 9 34 20 27 21 26 22 -5 11z"/>
<path d="M3242 3212 l-62 -57 31 -38 c22 -27 35 -35 42 -28 8 8 4 18 -13 36
l-24 25 21 22 21 21 25 -28 c15 -18 26 -24 31 -17 4 6 -3 21 -15 33 l-21 21
22 22 21 21 23 -29 c15 -18 26 -24 30 -17 9 14 -34 70 -54 70 -8 0 -43 -26
-78 -57z"/>
<path d="M2202 3133 c3 -21 8 -46 12 -55 7 -15 3 -16 -28 -11 -23 4 -36 2 -36
-5 0 -18 76 -52 114 -52 33 0 39 -5 89 -82 30 -46 67 -106 82 -134 l28 -50
-13 -132 c-15 -154 -7 -149 -125 -78 -47 29 -73 51 -80 70 -15 43 3 60 71 66
32 3 70 12 84 20 l25 15 -37 3 -37 3 19 32 c11 18 20 38 20 45 0 18 -41 14
-77 -8 l-32 -19 -3 32 -3 32 -25 -40 -25 -40 -7 40 c-5 26 -2 58 9 92 18 61
11 112 -12 93 -8 -7 -15 -19 -15 -27 0 -10 -12 -5 -36 16 -20 18 -41 30 -47
28 -7 -2 -12 -22 -11 -46 l1 -41 -36 6 c-36 7 -36 7 -18 -14 24 -26 78 -52
110 -52 23 0 26 -5 31 -47 14 -120 17 -193 9 -193 -5 0 -25 17 -46 38 -27 28
-34 41 -27 52 21 33 4 130 -21 115 -5 -4 -9 -17 -9 -31 0 -30 -2 -30 -48 1
-47 32 -72 33 -72 3 1 -13 7 -34 15 -48 20 -35 20 -36 -27 -32 l-43 4 29 -22
c19 -16 47 -25 90 -29 52 -5 61 -9 61 -25 0 -18 -6 -20 -58 -17 -43 2 -65 -2
-85 -16 l-27 -18 38 -5 39 -5 -19 -25 c-11 -14 -23 -38 -27 -53 -7 -28 -6 -29
26 -22 18 4 42 14 53 21 29 20 35 17 35 -17 0 -41 20 -34 44 16 15 31 17 44 9
66 -20 53 6 51 84 -5 40 -28 73 -57 73 -63 0 -8 -13 -13 -35 -13 -25 0 -44 -9
-67 -31 l-33 -31 32 6 c31 5 32 5 26 -29 -3 -19 -3 -41 1 -50 5 -14 8 -14 36
0 17 9 36 24 42 35 11 18 13 17 26 -13 10 -25 15 -29 22 -17 15 23 12 73 -6
98 -9 13 -14 25 -12 28 3 2 28 -9 56 -24 45 -24 51 -31 54 -62 2 -26 8 -36 23
-39 11 -2 34 -15 50 -29 l30 -25 3 56 c3 54 4 56 52 87 27 17 54 38 60 46 7 7
19 14 26 14 11 0 11 -5 3 -24 -15 -32 7 -79 25 -54 10 14 15 14 40 1 35 -18
43 -11 29 28 -11 27 -10 29 8 24 21 -7 26 9 7 22 -7 4 -31 10 -53 14 l-40 6
50 23 c28 12 62 31 77 42 36 25 50 16 36 -22 -8 -24 -6 -37 9 -67 24 -48 43
-54 43 -14 0 36 5 38 45 11 66 -44 100 -11 50 48 -30 36 -31 45 -5 37 11 -3
28 -2 37 4 29 16 -50 45 -104 37 -47 -6 -59 4 -43 35 9 15 18 19 36 15 34 -9
104 9 128 33 l20 21 -43 0 c-42 0 -43 1 -28 18 9 10 20 33 23 52 7 33 7 33
-25 27 -18 -4 -45 -16 -61 -27 l-28 -20 -6 25 c-8 30 -21 32 -36 6 -13 -26
-13 -67 1 -93 10 -19 6 -26 -32 -60 -23 -21 -46 -38 -51 -38 -11 0 -10 31 6
135 18 114 23 125 53 125 30 0 72 21 98 50 l20 23 -38 -7 -37 -7 6 39 c8 54
-9 61 -55 24 l-38 -31 -11 22 c-9 19 -5 27 26 55 l37 33 -42 -5 -42 -6 14 33
c12 29 11 77 -2 77 -12 0 -61 -31 -77 -49 l-20 -22 -13 33 -14 33 -14 -25
c-19 -33 -18 -54 0 -91 16 -29 15 -30 -52 -132 l-68 -102 -9 115 c-10 127 -20
119 -29 -23 -3 -43 -8 -81 -12 -85 -8 -8 -27 17 -89 118 -48 79 -49 82 -36
119 7 23 10 54 6 75 -7 37 -23 56 -30 34 -17 -54 -15 -53 -39 -31 -58 53 -91
55 -85 6z m563 -184 c0 -37 4 -53 17 -60 13 -7 15 -15 8 -37 -5 -15 -14 -57
-20 -94 -7 -38 -16 -68 -21 -68 -5 0 -4 11 1 25 7 19 6 36 -4 59 -19 47 -36
54 -36 17 l0 -31 -32 20 c-67 41 -103 14 -58 -43 l20 -26 -37 -3 -38 -3 29
-19 c18 -13 46 -20 82 -20 64 -1 79 -13 70 -58 -5 -27 -16 -39 -64 -66 -31
-18 -75 -41 -98 -51 l-41 -19 -7 91 c-13 191 -15 182 71 311 75 112 79 115
118 119 22 2 40 4 40 5 0 1 0 -21 0 -49z m-521 -244 c3 -8 1 -15 -4 -15 -6 0
-10 7 -10 15 0 8 2 15 4 15 2 0 6 -7 10 -15z"/>
<path d="M1572 3137 c-59 -63 18 -176 100 -148 41 14 57 38 58 83 0 75 -107
119 -158 65z m88 -12 c55 -29 63 -79 15 -105 -47 -25 -114 23 -101 74 4 18 31
40 54 45 2 1 16 -6 32 -14z"/>
<path d="M3347 3102 c-42 -26 -77 -53 -77 -59 0 -17 5 -16 41 3 40 20 46 13
24 -35 -23 -53 -9 -77 17 -27 16 31 21 35 38 26 15 -8 28 -7 50 5 38 19 40 57
7 103 l-23 31 -77 -47z m89 -17 c7 -27 -9 -55 -32 -55 -7 0 -20 10 -29 22 -14
21 -14 24 7 40 32 24 47 22 54 -7z"/>
<path d="M1478 2963 c-16 -20 -41 -74 -35 -79 12 -13 160 -73 168 -69 16 11
10 24 -18 37 -25 12 -28 18 -25 59 3 40 1 46 -23 57 -35 16 -49 15 -67 -5z
m72 -41 c0 -35 -16 -47 -44 -34 -30 13 -33 33 -10 56 19 19 54 5 54 -22z"/>
<path d="M3462 2964 c-16 -11 -22 -25 -22 -55 0 -42 -21 -62 -43 -40 -9 9 -9
16 0 30 7 11 8 23 2 32 -8 12 -12 11 -24 -5 -21 -27 -19 -62 5 -86 22 -22 42
-25 71 -10 14 8 19 21 19 54 0 45 19 74 41 61 6 -4 9 -19 5 -35 -6 -33 2 -44
21 -29 19 17 16 56 -7 79 -24 24 -38 25 -68 4z"/>
<path d="M2756 2351 c-12 -13 -20 -42 -23 -85 -4 -45 -11 -70 -24 -82 -19 -17
-39 -12 -39 10 0 7 -9 21 -19 30 -27 25 -57 6 -72 -43 -15 -50 -7 -71 26 -71
30 0 43 -24 25 -45 -7 -8 -36 -22 -64 -31 -51 -16 -94 -40 -85 -48 6 -6 119
13 139 24 10 5 26 31 36 57 10 27 26 54 36 61 35 25 67 90 79 156 13 79 10 95
-15 67z"/>
<path d="M2417 2282 l-27 -28 30 -22 c32 -24 52 -21 80 14 13 14 11 19 -13 40
-35 30 -38 30 -70 -4z"/>
<path d="M2510 2215 c-13 -14 -34 -25 -47 -25 -30 0 -41 -27 -20 -48 15 -15
18 -14 39 5 13 12 32 23 43 25 14 2 21 12 23 36 4 38 -7 41 -38 7z"/>
<path d="M2496 2121 c-13 -15 -26 -18 -56 -14 -34 5 -45 1 -76 -27 -38 -33
-56 -35 -136 -15 -46 12 -93 -3 -142 -46 -50 -45 -63 -72 -18 -40 42 30 75 34
117 17 50 -21 96 -9 166 44 40 30 56 37 70 30 25 -14 62 3 89 39 23 34 13 42
-14 12z"/>
<path d="M2516 2071 c-16 -17 -40 -31 -55 -33 -26 -3 -26 -4 -29 -100 l-3 -98
61 0 60 0 0 59 0 60 -52 3 c-46 3 -53 6 -56 26 -3 19 6 26 52 47 41 18 56 30
56 45 0 26 -1 26 -34 -9z"/>
<path d="M2723 2070 c-28 -35 -29 -34 3 -55 25 -16 28 -16 54 4 24 17 30 18
40 6 22 -27 50 -28 76 -4 l24 23 -22 23 c-26 28 -40 29 -63 3 -18 -20 -18 -20
-51 5 -18 14 -34 25 -36 24 -2 0 -13 -13 -25 -29z"/>
<path d="M2772 1967 c-22 -23 -22 -24 -4 -40 25 -23 41 -21 69 5 l23 22 -27
18 c-35 23 -35 23 -61 -5z"/>
<path d="M1674 1927 c-21 -18 -54 -43 -71 -56 -18 -12 -33 -29 -33 -38 0 -12
8 -9 35 11 l34 26 17 -24 c21 -34 50 -41 79 -22 32 21 32 56 2 101 l-24 35
-39 -33z m56 -27 c6 -12 8 -30 5 -41 -8 -25 -53 -23 -69 4 -9 15 -7 22 13 38
29 24 38 24 51 -1z"/>
<path d="M3280 1937 c-9 -7 -26 -26 -38 -44 l-22 -31 33 -27 c17 -14 50 -40
72 -56 l40 -31 27 31 c42 47 39 99 -7 140 -38 33 -78 40 -105 18z m80 -23 c56
-38 63 -68 26 -111 l-24 -27 -56 42 c-31 24 -56 47 -56 53 0 17 48 59 67 59
10 0 30 -7 43 -16z"/>
<path d="M2152 1900 l-33 -28 31 -22 31 -22 24 22 24 22 29 -21 c38 -27 43
-26 73 5 l24 25 -25 19 c-30 24 -44 25 -60 5 -17 -20 -40 -19 -64 4 -21 19
-21 19 -54 -9z"/>
<path d="M1736 1771 c-37 -37 -63 -70 -59 -74 3 -4 19 5 35 20 37 36 54 22 39
-33 -6 -24 -7 -42 -1 -48 5 -5 11 2 15 20 12 52 14 56 34 49 12 -4 29 3 47 18
33 29 29 63 -14 94 l-29 21 -67 -67z m106 6 c9 -17 7 -24 -12 -39 -16 -13 -27
-15 -40 -8 -31 17 -33 30 -10 55 24 26 45 23 62 -8z"/>
<path d="M3155 1800 l-28 -29 64 -66 65 -65 37 31 c20 17 34 35 31 41 -4 5
-19 -2 -35 -18 l-29 -28 -26 25 -25 24 27 22 c16 12 25 25 21 29 -4 4 -18 -3
-32 -16 -24 -23 -25 -23 -45 -5 -25 23 -25 41 0 55 11 6 20 15 20 20 0 18 -16
11 -45 -20z"/>
<path d="M3070 1733 c-44 -29 -60 -45 -54 -55 3 -5 14 -2 24 7 17 15 21 12 69
-55 29 -39 56 -68 61 -65 6 3 -13 38 -41 78 l-50 71 23 18 c30 23 3 23 -32 1z"/>
<path d="M1893 1715 c-10 -14 -35 -47 -55 -73 -39 -47 -45 -62 -29 -62 12 0
111 131 111 148 0 18 -7 15 -27 -13z"/>
<path d="M1933 1608 c-15 -67 -18 -95 -10 -100 6 -4 40 18 77 49 36 31 69 60
74 65 5 4 7 11 3 14 -3 4 -36 -19 -72 -51 -36 -32 -65 -53 -65 -47 0 10 12 72
26 140 2 12 1 22 -4 22 -5 0 -18 -42 -29 -92z"/>
<path d="M2971 1660 c8 -33 85 -160 97 -160 15 0 -52 132 -81 158 -16 14 -19
14 -16 2z"/>
<path d="M2917 1633 c-4 -3 -7 -44 -7 -90 l0 -84 -56 60 c-52 57 -94 81 -81
47 3 -8 18 -49 33 -90 15 -42 31 -76 35 -76 14 0 11 17 -12 71 -12 27 -20 52
-17 54 3 3 26 -17 52 -45 26 -27 51 -50 56 -50 5 0 10 33 12 73 l3 72 21 -55
c12 -30 27 -56 34 -58 7 -3 10 1 7 9 -3 8 -17 49 -32 92 -25 74 -33 85 -48 70z"/>
<path d="M2100 1528 c-33 -39 -60 -75 -60 -80 0 -15 18 -8 31 13 14 20 15 21
52 3 27 -13 37 -24 37 -41 0 -13 4 -23 9 -23 4 0 11 41 14 91 10 135 3 139
-83 37z m60 -9 c0 -48 -1 -50 -22 -44 -13 4 -26 10 -30 14 -7 6 37 81 47 81 3
0 5 -23 5 -51z"/>
<path d="M2250 1565 c0 -3 12 -10 26 -15 17 -7 24 -15 20 -25 -12 -32 -29
-145 -23 -152 12 -11 16 1 34 86 16 77 19 82 40 76 39 -9 25 13 -14 24 -41 12
-83 14 -83 6z"/>
<path d="M2710 1566 c0 -25 44 -186 51 -186 11 0 11 14 -2 70 -20 91 -30 120
-39 120 -6 0 -10 -2 -10 -4z"/>
<path d="M2396 1489 c-3 -34 -6 -79 -6 -100 l0 -39 50 0 c28 0 50 5 50 10 0 6
-15 10 -33 10 -42 0 -45 3 -39 40 4 27 8 30 38 30 19 0 34 5 34 10 0 6 -16 10
-35 10 -32 0 -35 2 -35 30 0 28 2 30 40 30 40 0 53 13 24 24 -9 3 -30 6 -48 6
l-33 0 -7 -61z"/>
<path d="M2600 1530 c0 -10 5 -53 11 -95 11 -73 12 -75 39 -75 35 0 60 9 60
22 0 5 -15 6 -35 2 -32 -6 -35 -4 -35 17 0 43 -22 149 -31 149 -5 0 -9 -9 -9
-20z"/>
</g>
</svg>
